<?xml version="1.0" encoding="utf-8"?>
<!-- Generator: Adobe Illustrator 22.1.0, SVG Export Plug-In . SVG Version: 6.00 Build 0)  -->
<svg version="1.1" id="Capa_1" xmlns="http://www.w3.org/2000/svg" xmlns:xlink="http://www.w3.org/1999/xlink" x="0px" y="0px"
	 viewBox="0 0 493.8 493.8" style="enable-background:new 0 0 493.8 493.8;" xml:space="preserve">
<style type="text/css">
	.st0{fill:#FFFFFF;}
</style>
<g>
	<g>
		<path class="st0" d="M224.5,227.6c-12.3,12.3-12.3,32.4,0,44.7c12.3,12.3,32.4,12.3,44.7,0c12.3-12.3,12.3-32.4,0-44.7
			C256.9,215.3,236.8,215.3,224.5,227.6z M268.3,249.1c-2.6,2.6-9.3,0-15-5.7c-5.7-5.7-8.2-12.4-5.7-15c2.6-2.6,9.3,0,15,5.7
			C268.4,239.8,270.9,246.5,268.3,249.1z"/>
		<path class="st0" d="M446.9,264c-2-2.9-4-5.9-6-8.8c-9.1-13.3-19.7-25.5-31.3-36.7c-14.8-14.3-31-27.2-48.5-38.1
			c-17.6-10.9-36.4-19.9-56.2-26.1c-16.4-5.1-33.3-8.2-50.5-9c-15.9-0.7-31.9,0.9-47.5,4.2c-20.3,4.4-40,12-58.3,21.8
			c-18.2,9.7-35.3,21.5-51,35c-7.8,6.7-15.2,13.7-22.2,21.2c-6.6,7-13,14.4-18.7,22.3c-2,2.8-4,5.7-6,8.6c-1.3,1.9-2.6,3.7-3.8,5.6
			c-0.2,0.4-0.2,0.4,0.3,0.8c0.9,0.7,1.8,1.5,2.7,2.2c3.3,2.6,6.4,5.4,9.6,8c8.2,6.6,16.6,12.8,25.4,18.6
			c17.3,11.6,35.6,21.8,54.6,30.2c3.9,1.7,7.8,3.3,11.7,4.9c-8.8-5.6-17.4-11.3-25.6-17.6c-8.4-6.4-16.4-13.1-24.2-20.2
			c-9.2-8.4-18-17.2-26.2-26.5c15.6-10.2,31.6-19.9,48-28.8c15.9-8.6,32.3-16.2,49.2-22.8c3.4-1.3,6.8-2.6,10.3-3.7
			c-7.6,11.8-12,25.9-12,41c0,42,34.2,76.2,76.2,76.2c42,0,76.2-34.2,76.2-76.2c0-15-4.4-29-11.9-40.8c4.4,1.5,8.8,3.1,13.1,4.8
			c19.6,7.6,38.5,17.1,56.8,27.5c12.7,7.2,25.1,14.9,37.4,22.9c-13.8,15.6-29.1,29.9-45.4,42.8c-9.8,7.7-20,14.8-30.6,21.4
			c9.6-3.9,19.1-8,28.3-12.7c9.3-4.7,18.5-9.9,27.4-15.4c14.5-9,28.7-19,41.7-30.2c1.5-1.3,3-2.5,4.5-3.7c0.8-0.6,1.5-1.2,2.3-1.9
			C447,264.3,447.1,264.3,446.9,264z M246.9,301.8c-28.6,0-51.9-23.3-51.9-51.9c0-28.6,23.3-51.9,51.9-51.9
			c28.6,0,51.9,23.3,51.9,51.9C298.7,278.6,275.5,301.8,246.9,301.8z"/>
	</g>
</g>
</svg>
